<svg xmlns="http://www.w3.org/2000/svg" viewBox="0 0 256 256">
<defs>
 <linearGradient id="wand" x1="35" y1="218" x2="191" y2="54"><stop stop-color="#211a72"/><stop offset=".34" stop-color="#5127d9"/><stop offset=".61" stop-color="#d32ea7"/><stop offset=".83" stop-color="#ff6a3a"/><stop offset="1" stop-color="#ffd95f"/></linearGradient>
 <linearGradient id="rim" x1="40" y1="220" x2="205" y2="50"><stop stop-color="#65a8ff"/><stop offset=".28" stop-color="#8759ff"/><stop offset=".58" stop-color="#ff48b5"/><stop offset=".8" stop-color="#ff8a35"/><stop offset="1" stop-color="#fff07a"/></linearGradient>
 <radialGradient id="glow"><stop stop-color="#ffd75b" stop-opacity=".95"/><stop offset=".45" stop-color="#ff5cb7" stop-opacity=".45"/><stop offset="1" stop-color="#ff5cb7" stop-opacity="0"/></radialGradient>
 <filter id="blur"><feGaussianBlur stdDeviation="10"/></filter>
</defs>
<circle cx="174" cy="70" r="54" fill="url(#glow)" filter="url(#blur)"/>
<g transform="rotate(-45 128 128)">
 <rect x="105" y="42" width="46" height="174" rx="23" fill="#130f43" stroke="url(#rim)" stroke-width="6"/>
 <rect x="113" y="50" width="10" height="154" rx="5" fill="#fff" opacity=".18"/>
 <path d="M107 176c19-19 26-37 42-63" fill="none" stroke="#ff9a38" stroke-width="5" opacity=".7"/>
 <rect x="103" y="72" width="50" height="7" rx="3.5" fill="#ffd55e"/>
 <rect x="103" y="178" width="50" height="7" rx="3.5" fill="#ffb344"/>
</g>
<g fill="#fff3a1" stroke="#ff9a36" stroke-width="2">
 <path d="M177 26l7 19 19 7-19 7-7 19-7-19-19-7 19-7z"/>
 <path d="M211 77l4 11 11 4-11 4-4 11-4-11-11-4 11-4z"/>
 <path d="M157 92l3 8 8 3-8 3-3 8-3-8-8-3 8-3z"/>
 <path d="M203 126l5 14 14 5-14 5-5 14-5-14-14-5 14-5z"/>
</g>
<g fill="#9c72ff"><circle cx="196" cy="41" r="4"/><circle cx="226" cy="117" r="3"/></g>
</svg>